<svg width="25" height="25" viewBox="0 0 25 25" fill="none" xmlns="http://www.w3.org/2000/svg">
<line x1="5" y1="9.5" x2="15" y2="9.5" stroke="black"/>
<path d="M25 23.6906L17.7895 16.4794C19.2389 14.7361 20.1116 12.4985 20.1116 10.0554C20.1116 4.50105 15.6094 0 10.0558 0C4.50222 0 0 4.50205 0 10.0554C0 15.6087 4.50322 20.1108 10.0558 20.1108C12.5 20.1108 14.7377 19.2382 16.48 17.7888L23.6905 25L25 23.6906ZM1.0583 10.0554C1.0583 5.09471 5.09392 1.05825 10.0558 1.05825C15.0167 1.05825 19.0533 5.09471 19.0533 10.0554C19.0533 15.0161 15.0167 19.0525 10.0558 19.0525C5.09392 19.0525 1.0583 15.0161 1.0583 10.0554Z" fill="black"/>
</svg>
